# Rhino

o OutsideFacade_35
v -4.1216721534729 -5.117727756500244 2.810877323150635
v -4.1216721534729 2.1174476146698 2.810877323150635
v 1.61873984336853 -5.117727756500244 2.810877323150635
v 1.61873984336853 2.1174476146698 2.810877323150635
vt 0 0
vt 0 1
vt 1 0
vt 1 1
vn 0 0 1
vn 0 0 1
vn 0 0 1
vn 0 0 1
f 4/4/4 2/2/2 1/1/1 3/3/3
o OutsideFacade_35
v -4.1216721534729 -5.117727756500244 0
v -4.1216721534729 2.1174476146698 0
v 1.61873984336853 -5.117727756500244 0
v 1.61873984336853 2.1174476146698 0
vt 0 0
vt 0 1
vt 1 0
vt 1 1
vn 0 0 -1
vn 0 0 -1
vn 0 0 -1
vn 0 0 -1
f 8/8/8 7/7/7 5/5/5 6/6/6
o OutsideFacade_35
v -4.1216721534729 2.1174476146698 0
v -4.1216721534729 2.1174476146698 2.810877323150635
v -4.1216721534729 -5.117727756500244 0
v -4.1216721534729 -5.117727756500244 2.810877323150635
vt 0 0
vt 0 1
vt 1 0
vt 1 1
vn -1 0 0
vn -1 0 0
vn -1 0 0
vn -1 0 0
f 12/12/12 10/10/10 9/9/9 11/11/11
o OutsideFacade_35
v 1.61873984336853 2.1174476146698 0
v 1.61873984336853 2.1174476146698 2.810877323150635
v -4.1216721534729 2.1174476146698 0
v -4.1216721534729 2.1174476146698 2.810877323150635
vt 0 0
vt 0 1
vt 1 0
vt 1 1
vn 0 1 0
vn 0 1 0
vn 0 1 0
vn 0 1 0
f 16/16/16 14/14/14 13/13/13 15/15/15
o OutsideFacade_35
v 1.61873984336853 -5.117727756500244 0
v 1.61873984336853 -5.117727756500244 2.810877323150635
v 1.61873984336853 2.1174476146698 0
v 1.61873984336853 2.1174476146698 2.810877323150635
vt 0 0
vt 0 1
vt 1 0
vt 1 1
vn 1 0 0
vn 1 0 0
vn 1 0 0
vn 1 0 0
f 20/20/20 18/18/18 17/17/17 19/19/19
o OutsideFacade_35
v -4.1216721534729 -5.117727756500244 0
v -4.1216721534729 -5.117727756500244 2.810877323150635
v 1.61873984336853 -5.117727756500244 0
v 1.61873984336853 -5.117727756500244 2.810877323150635
v -1.860833048820496 -5.117727756500244 0.6849244832992554
v -1.860833048820496 -5.117727756500244 2.271965265274048
v 0.9338464736938477 -5.117727756500244 2.271965265274048
v 0.9338464736938477 -5.117727756500244 0.6849244832992554
vt 0 0
vt 0 1
vt 1 0
vt 1 1
vt 0.3938461244106293 0.2436692863702774
vt 0.3938461244106293 0.8082762360572815
vt 0.8806891441345215 0.8082762360572815
vt 0.8806891441345215 0.2436692863702774
vn 0 -1 0
vn 0 -1 0
vn 0 -1 0
vn 0 -1 0
vn -2.775557561562891e-17 -1 0
vn 0 -1 0
vn 0 -1 0
vn -2.775557561562891e-17 -1 0
f 22/22/22 21/21/21 25/25/25 26/26/26
f 21/21/21 23/23/23 28/28/28 25/25/25
f 24/24/24 22/22/22 26/26/26 27/27/27
f 23/23/23 24/24/24 27/27/27 28/28/28
