# Rhino

g floor
o GenericFloor_20
v -22.6382350921631 12.4260578155518 0
v -22.6382350921631 -12.673942565918 0
v 17.4617652893066 12.4260578155518 0
v 17.4617652893066 -12.673942565918 0
vt 0 0
vt 0 1
vt 1 0
vt 1 1
vn 0 0 1
vn 0 0 1
vn 0 0 1
vn 0 0 1
f 4/4/4 3/3/3 1/1/1 2/2/2
g ceiling
o GenericCeiling_80
v 16.4117660522461 3.10245943069458 6.05603790283203
v -21.5882339477539 -3.48673295974731 4.59391689300537
v -21.5882339477539 3.10245943069458 6.05603790283203
v 16.4117660522461 -3.48673295974731 4.59391689300537
v -2.58823490142822 -3.48673295974731 4.59391689300537
vt 0 1
vt 1 0
vt 1 1
vt 0 0
vt 0.5 0
vn 0 0.21662774682045 -0.976254284381866
vn 0 0.21662774682045 -0.976254284381866
vn 0 0.21662774682045 -0.976254284381866
vn 0 0.21662774682045 -0.976254284381866
vn 0 0.21662774682045 -0.976254284381866
f 5/5/5 8/8/8 9/9/9 6/6/6 7/7/7
o GenericCeiling_80
v 16.4117660522461 2.43879842758179 4.32397747039795
v 16.4117660522461 4.4322338104248 4.76631450653076
v 16.4117660522461 6.42566967010498 5.20865154266357
v 6.91176509857178 2.43879842758179 4.32397747039795
v 6.91176509857178 4.4322338104248 4.76631450653076
v 6.91176509857178 6.42566967010498 5.20865154266357
v -2.58823490142822 2.43879842758179 4.32397747039795
v -2.58823490142822 4.4322338104248 4.76631450653076
v -2.58823490142822 6.42566967010498 5.20865154266357
v -12.0882349014282 2.43879842758179 4.32397747039795
v -12.0882349014282 4.4322338104248 4.76631450653076
v -12.0882349014282 6.42566967010498 5.20865154266357
v -21.5882339477539 2.43879842758179 4.32397747039795
v -21.5882339477539 4.4322338104248 4.76631450653076
v -21.5882339477539 6.42566967010498 5.20865154266357
vt 0 0
vt 0 0.5
vt 0 1
vt 0.25 0
vt 0.25 0.5
vt 0.25 1
vt 0.5 0
vt 0.5 0.5
vt 0.5 1
vt 0.75 0
vt 0.75 0.5
vt 0.75 1
vt 1 0
vt 1 0.5
vt 1 1
vn 0 0.21662774682045 -0.976254284381866
vn 0 0.21662774682045 -0.976254284381866
vn 0 0.21662774682045 -0.976254284381866
vn 0 0.21662774682045 -0.976254284381866
vn 0 0.21662774682045 -0.976254284381866
vn 0 0.21662774682045 -0.976254284381866
vn 0 0.21662774682045 -0.976254284381866
vn 0 0.21662774682045 -0.976254284381866
vn 0 0.21662774682045 -0.976254284381866
vn 0 0.21662774682045 -0.976254284381866
vn 0 0.21662774682045 -0.976254284381866
vn 0 0.21662774682045 -0.976254284381866
vn 0 0.21662774682045 -0.976254284381866
vn 0 0.21662774682045 -0.976254284381866
vn 0 0.21662774682045 -0.976254284381866
f 11/11/11 10/10/10 13/13/13 16/16/16 19/19/19 22/22/22 23/23/23 24/24/24 21/21/21 18/18/18 15/15/15 12/12/12
o GenericCeiling_80
v -23.5092430114746 -2.85385417938232 6
v 18.3327732086182 -2.85385417938232 6
v -23.5092430114746 -14.286714553833 6
v 18.3327732086182 -14.286714553833 6
vt 0 0
vt 0 1
vt 1 0
vt 1 1
vn 0 0 1
vn 0 0 1
vn 0 0 1
vn 0 0 1
f 28/28/28 26/26/26 25/25/25 27/27/27
o GenericCeiling_80
v -23.5092430114746 13.5778942108154 6
v 18.3327732086182 13.5778942108154 6
v -23.5092430114746 6.21494102478027 6
v 18.3327732086182 6.21494102478027 6
vt 0 0
vt 0 1
vt 1 0
vt 1 1
vn 0 0 1
vn 0 0 1
vn 0 0 1
vn 0 0 1
f 32/32/32 30/30/30 29/29/29 31/31/31
g wall
o WhiteInteriorWall_70
v 17.4617652893066 -12.673942565918 0
v 17.4617652893066 -12.673942565918 6
v 17.4617652893066 -10.5185232162476 0
v 17.4617652893066 -10.5185232162476 3
v 17.4617652893066 -10.5185232162476 6
vt 0 0
vt 0 1
vt 1 0
vt 1 0.5
vt 1 1
vn 1 0 0
vn 1 0 0
vn 1 0 0
vn 1 0 0
vn 1 0 0
f 34/34/34 33/33/33 35/35/35 36/36/36 37/37/37
o WhiteInteriorWall_70
v 17.4617652893066 -10.5185232162476 6
v 17.4617652893066 -3.48673295974731 0
v 17.4617652893066 -10.5185232162476 3
v 17.4617652893066 -10.5185232162476 0
v 17.4617652893066 -3.48673295974731 3.00912070274353
v 17.4617652893066 -7.00262784957886 4.50456047058105
vt 0 1
vt 1 0
vt 0 0.5
vt 0 0
vt 1 0.501520097255707
vt 0.5 0.750760078430176
vn 1 0 0
vn 1 0 0
vn 1 0 0
vn 1 0 0
vn 1 0 0
vn 1 0 0
f 40/40/40 41/41/41 39/39/39 42/42/42 43/43/43 38/38/38
o WhiteInteriorWall_70
v 17.4617652893066 9.99195861816406 0
v 17.4617652893066 9.99195861816406 6
v 17.4617652893066 12.4260578155518 0
v 17.4617652893066 12.4260578155518 6
v 17.4617652893066 9.99195861816406 3
vt 0 0
vt 0 1
vt 1 0
vt 1 1
vt 0 0.5
vn 1 0 0
vn 1 0 0
vn 1 0 0
vn 1 0 0
vn 1 0 0
f 48/48/48 44/44/44 46/46/46 47/47/47 45/45/45
o WhiteInteriorWall_70
v -22.6382350921631 9.99195861816406 0
v -22.6382350921631 9.99195861816406 6
v -22.6382350921631 -3.48673295974731 0
v -22.6382350921631 -3.48673295974731 3.00912070274353
v -22.6382350921631 3.25261306762695 0
v -22.6382350921631 3.25261306762695 4.50456047058105
vt 0 0
vt 0 1
vt 1 0
vt 1 0.501520097255707
vt 0.5 0
vt 0.5 0.750760078430176
vn -1 0 0
vn -1 0 0
vn -1 0 0
vn -1 0 0
vn -1 0 0
vn -1 0 0
f 54/54/54 50/50/50 49/49/49 53/53/53 51/51/51 52/52/52
o WhiteInteriorWall_70
v -22.6382350921631 12.4260578155518 6
v -2.58823490142822 12.4260578155518 6
v 17.4617652893066 12.4260578155518 6
v -22.6382350921631 12.4260578155518 0
v -2.58823490142822 12.4260578155518 0
v 17.4617652893066 12.4260578155518 0
vt 0 0
vt 0 0.5
vt 0 1
vt 1 0
vt 1 0.5
vt 1 1
vn 0 1 0
vn 0 1 0
vn 0 1 0
vn 0 1 0
vn 0 1 0
vn 0 1 0
f 59/59/59 58/58/58 55/55/55 56/56/56 57/57/57 60/60/60
o WhiteInteriorWall_70
v 17.4617652893066 -12.673942565918 6
v -2.58823490142822 -12.673942565918 6
v -22.6382350921631 -12.673942565918 6
v 17.4617652893066 -12.673942565918 0
v -2.58823490142822 -12.673942565918 0
v -22.6382350921631 -12.673942565918 0
vt 0 0
vt 0 0.5
vt 0 1
vt 1 0
vt 1 0.5
vt 1 1
vn 0 -1 0
vn 0 -1 0
vn 0 -1 0
vn 0 -1 0
vn 0 -1 0
vn 0 -1 0
f 65/65/65 64/64/64 61/61/61 62/62/62 63/63/63 66/66/66
o WhiteInteriorWall_70
v 16.4117660522461 6.42566967010498 6
v 16.4117660522461 6.42566967010498 5.20865154266357
v 12.1895427703857 6.42566967010498 6
v 12.1895427703857 6.42566967010498 5.20865154266357
v 7.96732091903687 6.42566967010498 6
v 7.96732091903687 6.42566967010498 5.20865154266357
v 3.74509859085083 6.42566967010498 6
v 3.74509859085083 6.42566967010498 5.20865154266357
v -0.477123707532883 6.42566967010498 6
v -0.477123647928238 6.42566967010498 5.20865154266357
v -4.69934606552124 6.42566967010498 6
v -4.69934606552124 6.42566967010498 5.20865154266357
v -8.92156791687012 6.42566967010498 6
v -8.92156791687012 6.42566967010498 5.20865154266357
v -13.1437902450562 6.42566967010498 6
v -13.1437902450562 6.42566967010498 5.20865154266357
v -17.3660125732422 6.42566967010498 6
v -17.3660125732422 6.42566967010498 5.20865154266357
v -21.5882339477539 6.42566967010498 6
v -21.5882339477539 6.42566967010498 5.20865154266357
vt 0 0
vt 0 1
vt 0.111111111938953 0
vt 0.111111111938953 1
vt 0.222222223877907 0
vt 0.222222223877907 1
vt 0.333333343267441 0
vt 0.333333343267441 1
vt 0.444444447755814 0
vt 0.444444447755814 1
vt 0.555555582046509 0
vt 0.555555582046509 1
vt 0.666666686534882 0
vt 0.666666686534882 1
vt 0.777777791023254 0
vt 0.777777791023254 1
vt 0.888888895511627 0
vt 0.888888895511627 1
vt 1 0
vt 1 1
vn 0 -1 0
vn 0 -1 0
vn 0 -1 0
vn 0 -1 0
vn 0 -1 0
vn 0 -1 0
vn 0 -1 0
vn 0 -1 0
vn 0 -1 0
vn 0 -1 0
vn 0 -1 0
vn 0 -1 0
vn 0 -1 0
vn 0 -1 0
vn 0 -1 0
vn 0 -1 0
vn 0 -1 0
vn 0 -1 0
vn 0 -1 0
vn 0 -1 0
f 70/70/70 68/68/68 67/67/67 69/69/69 71/71/71 73/73/73 75/75/75 77/77/77 79/79/79 81/81/81 83/83/83 85/85/85 86/86/86 84/84/84 82/82/82 80/80/80 78/78/78 76/76/76 74/74/74 72/72/72
o WhiteInteriorWall_70
v -21.5882339477539 6.42566967010498 6
v -21.5882339477539 8.20881462097168 6
v -21.5882339477539 9.99195861816406 6
v -21.5882339477539 8.20881462097168 5.60432577133179
v -21.5882339477539 6.42566967010498 5.20865154266357
vt 0.00980392191559076 0
vt 0.5 0
vt 0.990196049213409 0
vt 0.5 0.5
vt 0.00980392191559076 1
vn -1 0 0
vn -1 0 0
vn -1 0 0
vn -1 0 0
vn -1 0 0
f 90/90/90 91/91/91 87/87/87 88/88/88 89/89/89
o WhiteInteriorWall_70
v 16.4117660522461 6.42566967010498 6
v 16.4117660522461 8.20881462097168 6
v 16.4117660522461 9.99195861816406 6
v 16.4117660522461 8.20881462097168 5.60432577133179
v 16.4117660522461 6.42566967010498 5.20865154266357
vt 0.00980392191559076 0
vt 0.5 0
vt 0.990196049213409 0
vt 0.5 0.5
vt 0.00980392191559076 1
vn 1 0 0
vn 1 0 0
vn 1 0 0
vn 1 0 0
vn 1 0 0
f 92/92/92 96/96/96 95/95/95 94/94/94 93/93/93
o WhiteInteriorWall_70
v 17.4617652893066 -3.48673295974731 3.00912070274353
v 16.4117660522461 -3.48673295974731 3.00912070274353
v 17.4617652893066 -7.00262784957886 4.50456047058105
v 16.4117660522461 -7.00262784957886 4.50456047058105
v 17.4617652893066 -10.5185232162476 6
v 16.4117660522461 -10.5185232162476 6
vt 0 0
vt 0 1
vt 0.5 0
vt 0.5 1
vt 1 0
vt 1 1
vn 0 0.391403168439865 0.920219302177429
vn 0 0.391403168439865 0.920219302177429
vn 0 0.391403168439865 0.920219302177429
vn 0 0.391403168439865 0.920219302177429
vn 0 0.391403168439865 0.920219302177429
vn 0 0.391403168439865 0.920219302177429
f 99/99/99 97/97/97 98/98/98 100/100/100 102/102/102 101/101/101
o WhiteInteriorWall_70
v -22.6382350921631 9.99195861816406 6
v -21.5882339477539 9.99195861816406 6
v -22.6382350921631 -3.48673295974731 3.00912070274353
v -21.5882339477539 -3.48673295974731 3.00912070274353
vt 0 0
vt 0 1
vt 1 0
vt 1 1
vn 0 -0.21662774682045 0.976254284381866
vn 0 -0.21662774682045 0.976254284381866
vn 0 -0.21662774682045 0.976254284381866
vn 0 -0.21662774682045 0.976254284381866
f 103/103/103 105/105/105 106/106/106 104/104/104
g window
o Glazing_DoublePane_LowE_65
v 16.5829467773438 -12.673942565918 5.0299334526062
v 3.80215907096863 -12.673942565918 5.0299334526062
v -8.97862911224365 -12.673942565918 5.0299334526062
v -21.7594165802002 -12.673942565918 5.0299334526062
v 16.5829467773438 -12.673942565918 2.68548727035522
v 3.80215907096863 -12.673942565918 2.68548727035522
v -8.97862911224365 -12.673942565918 2.68548727035522
v -21.7594165802002 -12.673942565918 2.68548727035522
vt 0 0
vt 0 0.333333343267441
vt 0 0.666666686534882
vt 0 1
vt 1 0
vt 1 0.333333343267441
vt 1 0.666666686534882
vt 1 1
vn 0 -1 0
vn 0 -1 0
vn 0 -1 0
vn 0 -1 0
vn 0 -1 0
vn 0 -1 0
vn 0 -1 0
vn 0 -1 0
f 112/112/112 111/111/111 107/107/107 108/108/108 109/109/109 110/110/110 114/114/114 113/113/113
g wall
o WhiteInteriorWall_70
v 16.4117660522461 -3.48673295974731 3.00912070274353
v 16.4117660522461 -3.48673295974731 4.59391689300537
v 16.4117660522461 2.43879842758179 4.32397747039795
v 16.4117660522461 2.43879842758179 5.90877389907837
v 16.4117660522461 -0.523967266082764 5.25134515762329
vt 0 0
vt 0 1
vt 1 0
vt 1 1
vt 0.5 1
vn 1 0 0
vn 1 0 0
vn 1 0 0
vn 1 0 0
vn 1 0 0
f 119/119/119 116/116/116 115/115/115 117/117/117 118/118/118
o WhiteInteriorWall_70
v 16.4117660522461 -10.5185232162476 6
v 16.4117660522461 -3.48673295974731 3.00912070274353
v 16.4117660522461 -3.48673295974731 6
v 16.4117660522461 -7.00262784957886 6
vt 0 0
vt 1 0
vt 1 1
vt 0.5 0.5
vn 1 0 0
vn 1 0 0
vn 1 0 0
vn 1 0 0
f 123/123/123 120/120/120 121/121/121 122/122/122
o WhiteInteriorWall_70
v -21.5882339477539 -10.5185232162476 6
v -21.5882339477539 -3.48673295974731 3.00912070274353
v -21.5882339477539 -3.48673295974731 6
v -21.5882339477539 -7.00262784957886 6
vt 0 0
vt 1 0
vt 1 1
vt 0.5 0.5
vn -1 0 0
vn -1 0 0
vn -1 0 0
vn -1 0 0
f 125/125/125 124/124/124 127/127/127 126/126/126
o WhiteInteriorWall_70
v -21.5882339477539 -3.48673295974731 3.00912070274353
v -21.5882339477539 -3.48673295974731 4.59391689300537
v -21.5882339477539 2.43879842758179 4.32397747039795
v -21.5882339477539 2.43879842758179 5.90877389907837
v -21.5882339477539 -0.523967266082764 5.25134515762329
vt 0 0
vt 0 1
vt 1 0
vt 1 1
vt 0.5 1
vn -1 0 0
vn -1 0 0
vn -1 0 0
vn -1 0 0
vn -1 0 0
f 128/128/128 129/129/129 132/132/132 131/131/131 130/130/130
o WhiteInteriorWall_70
v 16.4117660522461 2.43879842758179 5.90877389907837
v -21.5882339477539 2.43879842758179 5.90877389907837
v 16.4117660522461 2.43879842758179 4.32397747039795
v -21.5882339477539 2.43879842758179 4.32397747039795
vt 0 0
vt 0 1
vt 1 0
vt 1 1
vn 0 1 0
vn 0 1 0
vn 0 1 0
vn 0 1 0
f 133/133/133 135/135/135 136/136/136 134/134/134
g window
o Glazing_DoublePane_LowE_65
v -21.7440433502197 12.4260578155518 4.23856639862061
v -8.97350406646729 12.4260578155518 4.23856639862061
v 3.797034740448 12.4260578155518 4.23856639862061
v 16.5675735473633 12.4260578155518 4.23856639862061
v -21.7440433502197 12.4260578155518 1.76143372058868
v -8.97350406646729 12.4260578155518 1.76143372058868
v 3.797034740448 12.4260578155518 1.76143372058868
v 16.5675735473633 12.4260578155518 1.76143372058868
vt 0 0
vt 0 0.333333343267441
vt 0 0.666666686534882
vt 0 1
vt 1 0
vt 1 0.333333343267441
vt 1 0.666666686534882
vt 1 1
vn 0 1 0
vn 0 1 0
vn 0 1 0
vn 0 1 0
vn 0 1 0
vn 0 1 0
vn 0 1 0
vn 0 1 0
f 142/142/142 141/141/141 137/137/137 138/138/138 139/139/139 140/140/140 144/144/144 143/143/143
o Glazing_DoublePane_LowE_65
v 17.2820854187012 -3.72624254226685 3.11099290847778
v 16.5914459228516 -3.72624254226685 3.11099290847778
v 17.2820854187012 -7.00262784957886 4.50456047058105
v 16.5914459228516 -7.00262784957886 4.50456047058105
v 17.2820854187012 -10.279013633728 5.89812755584717
v 16.5914459228516 -10.279013633728 5.89812755584717
vt 0 0
vt 0 1
vt 0.5 0
vt 0.5 1
vt 1 0
vt 1 1
vn 0 0.391403168439865 0.920219302177429
vn 0 0.391403168439865 0.920219302177429
vn 0 0.391403168439865 0.920219302177429
vn 0 0.391403168439865 0.920219302177429
vn 0 0.391403168439865 0.920219302177429
vn 0 0.391403168439865 0.920219302177429
f 147/147/147 145/145/145 146/146/146 148/148/148 150/150/150 149/149/149
o Glazing_DoublePane_LowE_65
v 17.2820854187012 -2.60899209976196 3.20388865470886
v 16.5914459228516 -2.60899209976196 3.20388865470886
v 17.2820854187012 9.11421775817871 5.80523204803467
v 16.5914459228516 9.11421775817871 5.80523204803467
vt 0 0
vt 0 1
vt 1 0
vt 1 1
vn 0 -0.21662774682045 0.976254284381866
vn 0 -0.21662774682045 0.976254284381866
vn 0 -0.21662774682045 0.976254284381866
vn 0 -0.21662774682045 0.976254284381866
f 151/151/151 153/153/153 154/154/154 152/152/152
g wall
o WhiteInteriorWall_70
v 17.4617652893066 -3.48673295974731 0
v 17.4617652893066 9.99195861816406 0
v 17.4617652893066 9.99195861816406 6
v 17.4617652893066 3.25261306762695 4.50456047058105
v 17.4617652893066 -3.48673295974731 3.00912070274353
vt 0 0
vt 1 0
vt 1 1
vt 0.5 0.750760078430176
vt 0 0.501520097255707
vn 1 0 0
vn 1 0 0
vn 1 0 0
vn 1 0 0
vn 1 0 0
f 158/158/158 159/159/159 155/155/155 156/156/156 157/157/157
g window
o Glazing_DoublePane_LowE_65
v -22.4585552215576 9.11421775817871 5.80523204803467
v -21.7679138183594 9.11421775817871 5.80523204803467
v -22.4585552215576 -2.60899209976196 3.20388865470886
v -21.7679138183594 -2.60899209976196 3.20388865470886
vt 0 0
vt 0 1
vt 1 0
vt 1 1
vn 0 -0.21662774682045 0.976254284381866
vn 0 -0.21662774682045 0.976254284381866
vn 0 -0.21662774682045 0.976254284381866
vn 0 -0.21662774682045 0.976254284381866
f 160/160/160 162/162/162 163/163/163 161/161/161
o Glazing_DoublePane_LowE_65
v 15.6233034133911 2.43879842758179 5.69434881210327
v -20.7997741699219 2.43879842758179 5.69434881210327
v 15.6233034133911 2.43879842758179 4.53840208053589
v -20.7997741699219 2.43879842758179 4.53840208053589
vt 0 0
vt 0 1
vt 1 0
vt 1 1
vn 0 1 0
vn 0 1 0
vn 0 1 0
vn 0 1 0
f 164/164/164 166/166/166 167/167/167 165/165/165
o Glazing_DoublePane_LowE_65
v 15.9331493377686 6.42566967010498 5.87624216079712
v 15.9331493377686 6.42566967010498 5.33240938186646
v 12.8462524414063 6.42566967010498 5.87624216079712
v 12.8462524414063 6.42566967010498 5.33240938186646
v 9.75935459136963 6.42566967010498 5.87624216079712
v 9.75935459136963 6.42566967010498 5.33240938186646
v 6.67245721817017 6.42566967010498 5.87624216079712
v 6.67245769500732 6.42566967010498 5.33240938186646
v 3.58556008338928 6.42566967010498 5.87624216079712
v 3.58556008338928 6.42566967010498 5.33240938186646
v 0.498662620782852 6.42566967010498 5.87624216079712
v 0.498662680387497 6.42566967010498 5.33240938186646
v -2.58823490142822 6.42566967010498 5.87624216079712
v -2.58823466300964 6.42566967010498 5.33240938186646
v -5.67513227462769 6.42566967010498 5.87624216079712
v -5.67513227462769 6.42566967010498 5.33240938186646
v -8.76202964782715 6.42566967010498 5.87624216079712
v -8.76202964782715 6.42566967010498 5.33240938186646
v -11.8489274978638 6.42566967010498 5.87624216079712
v -11.8489265441895 6.42566967010498 5.33240938186646
v -14.9358243942261 6.42566967010498 5.87624216079712
v -14.9358243942261 6.42566967010498 5.33240938186646
v -18.0227222442627 6.42566967010498 5.87624216079712
v -18.0227222442627 6.42566967010498 5.33240938186646
v -21.109619140625 6.42566967010498 5.87624216079712
v -21.109619140625 6.42566967010498 5.33240938186646
vt 0 0
vt 0 1
vt 0.0833333358168602 0
vt 0.0833333358168602 1
vt 0.16666667163372 0
vt 0.16666667163372 1
vt 0.25 0
vt 0.25 1
vt 0.333333343267441 0
vt 0.333333343267441 1
vt 0.416666656732559 0
vt 0.416666656732559 1
vt 0.5 0
vt 0.5 1
vt 0.583333313465118 0
vt 0.583333313465118 1
vt 0.666666686534882 0
vt 0.666666686534882 1
vt 0.75 0
vt 0.75 1
vt 0.833333313465118 0
vt 0.833333313465118 1
vt 0.916666686534882 0
vt 0.916666686534882 1
vt 1 0
vt 1 1
vn 0 -1 0
vn 0 -1 0
vn 0 -1 0
vn 0 -1 0
vn 0 -1 0
vn 0 -1 0
vn 0 -1 0
vn 0 -1 0
vn 0 -1 0
vn 0 -1 0
vn 0 -1 0
vn 0 -1 0
vn 0 -1 0
vn 0 -1 0
vn 0 -1 0
vn 0 -1 0
vn 0 -1 0
vn 0 -1 0
vn 0 -1 0
vn 0 -1 0
vn 0 -1 0
vn 0 -1 0
vn 0 -1 0
vn 0 -1 0
vn 0 -1 0
vn 0 -1 0
f 171/171/171 169/169/169 168/168/168 170/170/170 172/172/172 174/174/174 176/176/176 178/178/178 180/180/180 182/182/182 184/184/184 186/186/186 188/188/188 190/190/190 192/192/192 193/193/193 191/191/191 189/189/189 187/187/187 185/185/185 183/183/183 181/181/181 179/179/179 177/177/177 175/175/175 173/173/173
g wall
o WhiteInteriorWall_70
v 16.4117660522461 -3.48673295974731 6
v 8.81176567077637 -3.48673295974731 6
v 1.21176517009735 -3.48673295974731 6
v -6.38823461532593 -3.48673295974731 6
v -13.9882345199585 -3.48673295974731 6
v -21.5882339477539 -3.48673295974731 6
v 16.4117660522461 -3.48673295974731 4.59391689300537
v 8.81176567077637 -3.48673295974731 4.59391689300537
v 1.21176517009735 -3.48673295974731 4.59391689300537
v -6.38823461532593 -3.48673295974731 4.59391689300537
v -13.9882345199585 -3.48673295974731 4.59391689300537
v -21.5882339477539 -3.48673295974731 4.59391689300537
vt 0 0
vt 0 0.200000002980232
vt 0 0.400000005960464
vt 0 0.600000023841858
vt 0 0.800000011920929
vt 0 1
vt 1 0
vt 1 0.200000002980232
vt 1 0.400000005960464
vt 1 0.600000023841858
vt 1 0.800000011920929
vt 1 1
vn 0 1 0
vn 0 1 0
vn 0 1 0
vn 0 1 0
vn 0 1 0
vn 0 1 0
vn 0 1 0
vn 0 1 0
vn 0 1 0
vn 0 1 0
vn 0 1 0
vn 0 1 0
f 195/195/195 194/194/194 200/200/200 201/201/201 202/202/202 203/203/203 204/204/204 205/205/205 199/199/199 198/198/198 197/197/197 196/196/196
g window
o Glazing_DoublePane_LowE_65
v 15.8329334259033 -3.48673295974731 5.82763290405273
v 12.7627382278442 -3.48673295974731 5.82763290405273
v 9.69254398345947 -3.48673295974731 5.82763290405273
v 6.62234926223755 -3.48673295974731 5.82763290405273
v 3.55215454101563 -3.48673295974731 5.82763290405273
v 0.481959909200668 -3.48673295974731 5.82763290405273
v -2.58823466300964 -3.48673295974731 5.82763290405273
v -5.65842962265015 -3.48673295974731 5.82763290405273
v -8.72862434387207 -3.48673295974731 5.82763290405273
v -11.7988185882568 -3.48673295974731 5.82763290405273
v -14.8690137863159 -3.48673295974731 5.82763290405273
v -17.939208984375 -3.48673295974731 5.82763290405273
v -21.0094032287598 -3.48673295974731 5.82763290405273
v 15.8329334259033 -3.48673295974731 5.29695844650269
v 12.7627382278442 -3.48673295974731 5.29695844650269
v 9.69254398345947 -3.48673295974731 5.29695844650269
v 6.62234926223755 -3.48673295974731 5.29695844650269
v 3.55215454101563 -3.48673295974731 5.29695844650269
v 0.481959909200668 -3.48673295974731 5.29695844650269
v -2.58823490142822 -3.48673295974731 5.29695844650269
v -5.65842962265015 -3.48673295974731 5.29695844650269
v -8.72862434387207 -3.48673295974731 5.29695844650269
v -11.7988185882568 -3.48673295974731 5.29695844650269
v -14.8690137863159 -3.48673295974731 5.29695844650269
v -17.939208984375 -3.48673295974731 5.29695844650269
v -21.0094032287598 -3.48673295974731 5.29695844650269
v 15.8329334259033 -3.48673295974731 4.76628398895264
v 12.7627382278442 -3.48673295974731 4.76628398895264
v 9.69254398345947 -3.48673295974731 4.76628398895264
v 6.62234926223755 -3.48673295974731 4.76628398895264
v 3.55215454101563 -3.48673295974731 4.76628398895264
v 0.481959879398346 -3.48673295974731 4.76628398895264
v -2.58823490142822 -3.48673295974731 4.76628398895264
v -5.65842962265015 -3.48673295974731 4.76628398895264
v -8.72862434387207 -3.48673295974731 4.76628398895264
v -11.7988185882568 -3.48673295974731 4.76628398895264
v -14.8690137863159 -3.48673295974731 4.76628398895264
v -17.939208984375 -3.48673295974731 4.76628398895264
v -21.0094032287598 -3.48673295974731 4.76628398895264
vt 0 0
vt 0 0.0833333358168602
vt 0 0.16666667163372
vt 0 0.25
vt 0 0.333333343267441
vt 0 0.416666656732559
vt 0 0.5
vt 0 0.583333313465118
vt 0 0.666666686534882
vt 0 0.75
vt 0 0.833333313465118
vt 0 0.916666686534882
vt 0 1
vt 0.5 0
vt 0.5 0.0833333358168602
vt 0.5 0.16666667163372
vt 0.5 0.25
vt 0.5 0.333333343267441
vt 0.5 0.416666656732559
vt 0.5 0.5
vt 0.5 0.583333313465118
vt 0.5 0.666666686534882
vt 0.5 0.75
vt 0.5 0.833333313465118
vt 0.5 0.916666686534882
vt 0.5 1
vt 1 0
vt 1 0.0833333358168602
vt 1 0.16666667163372
vt 1 0.25
vt 1 0.333333343267441
vt 1 0.416666656732559
vt 1 0.5
vt 1 0.583333313465118
vt 1 0.666666686534882
vt 1 0.75
vt 1 0.833333313465118
vt 1 0.916666686534882
vt 1 1
vn 0 1 0
vn 0 1 0
vn 0 1 0
vn 0 1 0
vn 0 1 0
vn 0 1 0
vn 0 1 0
vn 0 1 0
vn 0 1 0
vn 0 1 0
vn 0 1 0
vn 0 1 0
vn 0 1 0
vn 0 1 0
vn 0 1 0
vn 0 1 0
vn 0 1 0
vn 0 1 0
vn 0 1 0
vn 0 1 0
vn 0 1 0
vn 0 1 0
vn 0 1 0
vn 0 1 0
vn 0 1 0
vn 0 1 0
vn 0 1 0
vn 0 1 0
vn 0 1 0
vn 0 1 0
vn 0 1 0
vn 0 1 0
vn 0 1 0
vn 0 1 0
vn 0 1 0
vn 0 1 0
vn 0 1 0
vn 0 1 0
vn 0 1 0
f 207/207/207 206/206/206 219/219/219 232/232/232 233/233/233 234/234/234 235/235/235 236/236/236 237/237/237 238/238/238 239/239/239 240/240/240 241/241/241 242/242/242 243/243/243 244/244/244 231/231/231 218/218/218 217/217/217 216/216/216 215/215/215 214/214/214 213/213/213 212/212/212 211/211/211 210/210/210 209/209/209 208/208/208
g wall
o WhiteInteriorWall_70
v 17.4617652893066 -3.48673295974731 3.00912070274353
v 16.4117660522461 -3.48673295974731 3.00912070274353
v 17.4617652893066 9.99195861816406 6
v 16.4117660522461 9.99195861816406 6
vt 0 0
vt 0 1
vt 1 0
vt 1 1
vn 0 -0.21662774682045 0.976254284381866
vn 0 -0.21662774682045 0.976254284381866
vn 0 -0.21662774682045 0.976254284381866
vn 0 -0.21662774682045 0.976254284381866
f 245/245/245 247/247/247 248/248/248 246/246/246
o WhiteInteriorWall_70
v 16.4117652122414 -10.5185227603104 6
v 16.4117652122414 -3.48673302618193 6
cstype bspline
deg 1
curv 0 7.03178973412844 249 250
parm u 0 0 7.03178973412844 7.03178973412844
end
o WhiteInteriorWall_70
v 16.4117652506525 2.4387984900741 5.90877369883822
v 16.4117652506525 2.4387984900741 4.32397747536049
cstype bspline
deg 1
curv 0 1.58479622347773 251 252
parm u 0 0 1.58479622347773 1.58479622347773
end
o WhiteInteriorWall_70
v 17.4617652122414 -3.48673302618193 3.00912069770471
v 17.4617652122414 9.9919590019077 6
cstype bspline
deg 1
curv 0 13.8065382261081 253 254
parm u 0 0 13.8065382261081 13.8065382261081
end
o WhiteInteriorWall_70
v 16.4117652122414 -10.5185227603104 6
v 16.4117652122414 -3.48673302618193 3.00912069770471
cstype bspline
deg 1
curv 0 7.64142826086148 255 256
parm u 0 0 7.64142826086148 7.64142826086148
end
